<svg xmlns="http://www.w3.org/2000/svg" viewBox="0 -5 170 170" stroke-width="4" stroke-linecap="round">
  <style>
    .p {
      stroke: #0F0F0F;
    }

    .f {
      stroke: #0F0F0F;
      fill: #0F0F0F;
    }

    svg {
      filter: drop-shadow(3px 4px 8px rgb(255 255 255 / 0.6));
    }

    @media (prefers-color-scheme: dark) {
      .p {
        stroke: #FEFEFE;
      }

      .f {
        stroke: #FEFEFE;
        fill: #FEFEFE;
      }

      svg {
        filter: drop-shadow(3px 4px 8px rgb(0 0 0 / 0.4));
      }
    }
  </style>

  <!-- <path d="M163 35S110-4 69 5l-3 1c-6 2-11 5-14 9l-2 3-15 26 26 5c11 7 25 10 38 7l46 9 18-30z" fill="red" /> -->
  <!-- <path d="M134 80a45 45 0 00-48-15L20 85 4 120l112 19 20-36c4-7 3-15-2-23z" fill="red" /> -->

  <!-- <mask id="front">
    <rect x="0" y="-5" width="170" height="170" fill="white" />
    <path d="M52 35l-4 1c-17 5-22 21-13 35 10 13 31 20 48 15l62-21S92 26 52 35z" fill="black" stroke="black" />
  </mask> -->

  <path id="a" d="M20 85 L87 65c20 -7 46 5 51 22" fill="transparent" />
  <path id="b" d="M123 96.5a45 45 0 00-48-14L13 101.5s53 40 94 30l3-1c17-5 23-21 13-34z" fill="transparent" />

  <!-- <mask id="back">
    <rect x="0" y="-5" width="170" height="170" fill="white" />
    <use href="#a" stroke="black" />
    <use href="#b" stroke="black" /> 
  </mask> -->

  <path class="p" d="M163 35 c-30 -20 -80 -45 -107 -25" fill="transparent" />
  <path class="p" mask="url(#back)" d="M61 19l-4 1c-17 5-22 21-13 35 10 13 31 20 48 15l62-21S101 10 61 19z"
    fill="transparent" />
  <path class="f" mask="url(#back)" d="M52 35l-4 1c-17 5-22 21-13 35 10 13 31 20 48 15l62-21S92 26 52 35z" />

  <use class="p" href="#a" mask="url(#front)" />
  <use class="p" href="#b" mask="url(#front)" />
  <path class="f" d="M114 115a45 45 0 00-48-15L4 120s53 40 94 30l3-1c17-5 23-21 13-34z" />
</svg>
